REM DIRINDEX 1\2\6,1\2\7,1\2\8,1\2\9,1\3\10,1\3\11,1\4\12,1\4\13,1\4\14,1\5\15,1\5\16,1\5\17
REM DIRNAME cjc020,folder01,folder02,folder03,folder04,folder05,folder06,folder07,folder08,folder09,folder10,folder11,folder12,folder13,folder14,folder15,folder16
TITLE ""
FILE "1900_3_028 sec05_0447_0464.mp3" MP3
  TRACK 01 AUDIO
    TITLE "0:"
    INDEX 01 00:00:00
  TRACK 02 AUDIO
    TITLE "17:cjc020_6864"
    INDEX 01 00:00:19
  TRACK 03 AUDIO
    TITLE "0:"
    INDEX 01 00:01:28
  TRACK 04 AUDIO
    TITLE "16:cjc020_6865"
    INDEX 01 00:01:36
  TRACK 05 AUDIO
    TITLE "0:"
    INDEX 01 00:02:32
  TRACK 06 AUDIO
    TITLE "17:cjc020_6866"
    INDEX 01 00:03:15
  TRACK 07 AUDIO
    TITLE "0:"
    INDEX 01 00:04:11
  TRACK 08 AUDIO
    TITLE "16:cjc020_6867"
    INDEX 01 00:04:15
  TRACK 09 AUDIO
    TITLE "0:"
    INDEX 01 00:05:28
  TRACK 10 AUDIO
    TITLE "17:cjc020_6868"
    INDEX 01 00:06:16
  TRACK 11 AUDIO
    TITLE "0:"
    INDEX 01 00:09:00
  TRACK 12 AUDIO
    TITLE "16:cjc020_6869"
    INDEX 01 00:09:04
  TRACK 13 AUDIO
    TITLE "0:"
    INDEX 01 00:10:10
  TRACK 14 AUDIO
    TITLE "17:cjc020_6870"
    INDEX 01 00:10:70
  TRACK 15 AUDIO
    TITLE "0:"
    INDEX 01 00:12:16
  TRACK 16 AUDIO
    TITLE "16:cjc020_6871"
    INDEX 01 00:12:20
  TRACK 17 AUDIO
    TITLE "0:"
    INDEX 01 00:13:35
  TRACK 18 AUDIO
    TITLE "17:cjc020_6872"
    INDEX 01 00:14:17
  TRACK 19 AUDIO
    TITLE "0:"
    INDEX 01 00:15:23
  TRACK 20 AUDIO
    TITLE "16:cjc020_6873"
    INDEX 01 00:15:28
  TRACK 21 AUDIO
    TITLE "0:"
    INDEX 01 00:16:40
  TRACK 22 AUDIO
    TITLE "17:cjc020_6874"
    INDEX 01 00:17:23
  TRACK 23 AUDIO
    TITLE "0:"
    INDEX 01 00:18:11
  TRACK 24 AUDIO
    TITLE "16:cjc020_6875"
    INDEX 01 00:18:17
  TRACK 25 AUDIO
    TITLE "0:"
    INDEX 01 00:19:46
  TRACK 26 AUDIO
    TITLE "17:cjc020_6876"
    INDEX 01 00:20:26
  TRACK 27 AUDIO
    TITLE "0:"
    INDEX 01 00:21:35
  TRACK 28 AUDIO
    TITLE "16:cjc020_6877"
    INDEX 01 00:21:39
  TRACK 29 AUDIO
    TITLE "0:"
    INDEX 01 00:22:62
  TRACK 30 AUDIO
    TITLE "17:cjc020_6878"
    INDEX 01 00:23:46
  TRACK 31 AUDIO
    TITLE "0:"
    INDEX 01 00:25:35
  TRACK 32 AUDIO
    TITLE "16:cjc020_6879"
    INDEX 01 00:25:39
  TRACK 33 AUDIO
    TITLE "0:"
    INDEX 01 00:26:38
  TRACK 34 AUDIO
    TITLE "17:cjc020_6880"
    INDEX 01 00:27:24
  TRACK 35 AUDIO
    TITLE "0:"
    INDEX 01 00:28:31
  TRACK 36 AUDIO
    TITLE "16:cjc020_6881"
    INDEX 01 00:28:35
  TRACK 37 AUDIO
    TITLE "0:"
    INDEX 01 00:29:44
  TRACK 38 AUDIO
    TITLE "17:cjc020_6882"
    INDEX 01 00:30:32
  TRACK 39 AUDIO
    TITLE "0:"
    INDEX 01 00:31:47
  TRACK 40 AUDIO
    TITLE "16:cjc020_6883"
    INDEX 01 00:31:55
  TRACK 41 AUDIO
    TITLE "0:"
    INDEX 01 00:32:60
  TRACK 42 AUDIO
    TITLE "17:cjc020_6884"
    INDEX 01 00:33:46
  TRACK 43 AUDIO
    TITLE "0:"
    INDEX 01 00:35:02
  TRACK 44 AUDIO
    TITLE "16:cjc020_6885"
    INDEX 01 00:35:10
  TRACK 45 AUDIO
    TITLE "0:"
    INDEX 01 00:36:05
  TRACK 46 AUDIO
    TITLE "17:cjc020_6886"
    INDEX 01 00:36:66
  TRACK 47 AUDIO
    TITLE "0:"
    INDEX 01 00:37:67
  TRACK 48 AUDIO
    TITLE "16:cjc020_6887"
    INDEX 01 00:37:71
  TRACK 49 AUDIO
    TITLE "0:"
    INDEX 01 00:39:02
  TRACK 50 AUDIO
    TITLE "17:cjc020_6888"
    INDEX 01 00:39:60
  TRACK 51 AUDIO
    TITLE "0:"
    INDEX 01 00:41:45
  TRACK 52 AUDIO
    TITLE "16:cjc020_6889"
    INDEX 01 00:41:47
  TRACK 53 AUDIO
    TITLE "0:"
    INDEX 01 00:42:59
  TRACK 54 AUDIO
    TITLE "17:cjc020_6890"
    INDEX 01 00:43:48
  TRACK 55 AUDIO
    TITLE "0:"
    INDEX 01 00:46:19
  TRACK 56 AUDIO
    TITLE "16:cjc020_6891"
    INDEX 01 00:46:21
  TRACK 57 AUDIO
    TITLE "0:"
    INDEX 01 00:47:46
  TRACK 58 AUDIO
    TITLE "17:cjc020_6892"
    INDEX 01 00:48:28
  TRACK 59 AUDIO
    TITLE "0:"
    INDEX 01 00:49:25
  TRACK 60 AUDIO
    TITLE "16:cjc020_6893"
    INDEX 01 00:49:27
  TRACK 61 AUDIO
    TITLE "0:"
    INDEX 01 00:50:37
  TRACK 62 AUDIO
    TITLE "17:cjc020_6894"
    INDEX 01 00:51:24
  TRACK 63 AUDIO
    TITLE "0:"
    INDEX 01 00:53:68
  TRACK 64 AUDIO
    TITLE "16:cjc020_6895"
    INDEX 01 00:53:74
  TRACK 65 AUDIO
    TITLE "0:"
    INDEX 01 00:55:08
  TRACK 66 AUDIO
    TITLE "17:cjc020_6896"
    INDEX 01 00:55:65
  TRACK 67 AUDIO
    TITLE "0:"
    INDEX 01 00:57:05
  TRACK 68 AUDIO
    TITLE "16:cjc020_6897"
    INDEX 01 00:57:07
  TRACK 69 AUDIO
    TITLE "0:"
    INDEX 01 00:58:13
  TRACK 70 AUDIO
    TITLE "17:cjc020_6898"
    INDEX 01 00:58:71
  TRACK 71 AUDIO
    TITLE "0:"
    INDEX 01 00:59:59
  TRACK 72 AUDIO
    TITLE "16:cjc020_6899"
    INDEX 01 00:59:65
  TRACK 73 AUDIO
    TITLE "0:"
    INDEX 01 01:00:74
